{
.appVersion = "1128";
date = "2013-10-06 19:15:10 +0000";
designer = "Jens Kutilek";
disablesAutomaticAlignment = 1;
disablesNiceNames = 1;
familyName = "Jens Humanist 2";
fontMaster = (
{
ascender = 144;
capHeight = 134;
descender = -56;
id = "D055DC6D-3381-4E90-8C7D-0AB98A8347A5";
xHeight = 96;
}
);
glyphs = (
{
glyphname = A;
layers = (
{
layerId = "D055DC6D-3381-4E90-8C7D-0AB98A8347A5";
paths = (
{
closed = 1;
nodes = (
"125 0 LINE",
"72 134 LINE",
"63 134 LINE",
"58 124 LINE",
"106 0 LINE"
);
},
{
closed = 1;
nodes = (
"23 0 LINE",
"71 124 LINE",
"67 134 LINE",
"58 134 LINE",
"5 0 LINE"
);
},
{
closed = 1;
nodes = (
"95 39 LINE",
"95 54 LINE",
"35 54 LINE",
"35 39 LINE"
);
}
);
width = 130;
}
);
unicode = 0041;
userData = {
com.typemytype.robofont.layerData = {
background = {
anchors = (
);
components = (
);
contours = (
{
points = (
{
segmentType = line;
smooth = 0;
x = 41;
y = 47;
},
{
segmentType = line;
smooth = 0;
x = 86;
y = 47;
},
{
segmentType = line;
smooth = 0;
x = 86;
y = 63;
},
{
segmentType = line;
smooth = 0;
x = 41;
y = 63;
}
);
},
{
points = (
{
segmentType = line;
smooth = 0;
x = 99;
y = 0;
},
{
segmentType = line;
smooth = 0;
x = 117;
y = 0;
},
{
segmentType = line;
smooth = 0;
x = 70;
y = 134;
},
{
segmentType = line;
smooth = 0;
x = 57;
y = 134;
},
{
segmentType = line;
smooth = 0;
x = 57;
y = 125;
}
);
},
{
points = (
{
segmentType = line;
smooth = 0;
x = 10;
y = 0;
},
{
segmentType = line;
smooth = 0;
x = 28;
y = 0;
},
{
segmentType = line;
smooth = 0;
x = 70;
y = 125;
},
{
segmentType = line;
smooth = 0;
x = 70;
y = 134;
},
{
segmentType = line;
smooth = 0;
x = 56;
y = 134;
}
);
}
);
lib = {
};
name = A;
unicodes = (
);
width = 130;
};
};
};
},
{
glyphname = E;
layers = (
{
layerId = "D055DC6D-3381-4E90-8C7D-0AB98A8347A5";
paths = (
{
closed = 1;
nodes = (
"96 0 LINE",
"96 15 LINE",
"28 15 LINE",
"28 0 LINE"
);
},
{
closed = 1;
nodes = (
"94 119 LINE",
"94 134 LINE",
"28 134 LINE",
"28 119 LINE"
);
},
{
closed = 1;
nodes = (
"37 0 LINE",
"37 134 LINE",
"19 134 LINE",
"19 0 LINE"
);
},
{
closed = 1;
nodes = (
"83 63 LINE",
"83 78 LINE",
"28 78 LINE",
"28 63 LINE"
);
}
);
width = 109;
}
);
unicode = 0045;
userData = {
com.typemytype.robofont.layerData = {
background = {
anchors = (
);
components = (
);
contours = (
{
points = (
{
segmentType = line;
smooth = 0;
x = 27;
y = 64;
},
{
segmentType = line;
smooth = 0;
x = 77;
y = 64;
},
{
segmentType = line;
smooth = 0;
x = 77;
y = 77;
},
{
segmentType = line;
smooth = 0;
x = 27;
y = 77;
}
);
},
{
points = (
{
segmentType = line;
smooth = 0;
x = 19;
y = 0;
},
{
segmentType = line;
smooth = 0;
x = 34;
y = 0;
},
{
segmentType = line;
smooth = 0;
x = 34;
y = 134;
},
{
segmentType = line;
smooth = 0;
x = 19;
y = 134;
}
);
},
{
points = (
{
segmentType = line;
smooth = 0;
x = 27;
y = 121;
},
{
segmentType = line;
smooth = 0;
x = 89;
y = 121;
},
{
segmentType = line;
smooth = 0;
x = 89;
y = 134;
},
{
segmentType = line;
smooth = 0;
x = 27;
y = 134;
}
);
},
{
points = (
{
segmentType = line;
smooth = 0;
x = 27;
y = 0;
},
{
segmentType = line;
smooth = 0;
x = 96;
y = 0;
},
{
segmentType = line;
smooth = 0;
x = 96;
y = 13;
},
{
segmentType = line;
smooth = 0;
x = 27;
y = 13;
}
);
}
);
lib = {
};
name = E;
unicodes = (
);
width = 109;
};
};
};
},
{
glyphname = H;
layers = (
{
layerId = "D055DC6D-3381-4E90-8C7D-0AB98A8347A5";
paths = (
{
closed = 1;
nodes = (
"116 63 LINE",
"116 78 LINE",
"28 78 LINE",
"28 63 LINE"
);
},
{
closed = 1;
nodes = (
"125 0 LINE",
"125 134 LINE",
"107 134 LINE",
"107 0 LINE"
);
},
{
closed = 1;
nodes = (
"37 0 LINE",
"37 134 LINE",
"19 134 LINE",
"19 0 LINE"
);
}
);
width = 144;
}
);
unicode = 0048;
userData = {
com.typemytype.robofont.layerData = {
background = {
anchors = (
);
components = (
);
contours = (
{
points = (
{
segmentType = line;
smooth = 0;
x = 107;
y = 0;
},
{
segmentType = line;
smooth = 0;
x = 125;
y = 0;
},
{
segmentType = line;
smooth = 0;
x = 125;
y = 135;
},
{
segmentType = line;
smooth = 0;
x = 107;
y = 135;
}
);
},
{
points = (
{
segmentType = line;
smooth = 0;
x = 18;
y = 0;
},
{
segmentType = line;
smooth = 0;
x = 36;
y = 0;
},
{
segmentType = line;
smooth = 0;
x = 36;
y = 135;
},
{
segmentType = line;
smooth = 0;
x = 18;
y = 135;
}
);
},
{
points = (
{
segmentType = line;
smooth = 0;
x = 27;
y = 63;
},
{
segmentType = line;
smooth = 0;
x = 116;
y = 63;
},
{
segmentType = line;
smooth = 0;
x = 116;
y = 77;
},
{
segmentType = line;
smooth = 0;
x = 27;
y = 77;
}
);
}
);
lib = {
};
name = l;
unicodes = (
);
width = 144;
};
};
};
},
{
glyphname = I;
layers = (
{
layerId = "D055DC6D-3381-4E90-8C7D-0AB98A8347A5";
paths = (
{
closed = 1;
nodes = (
"37 0 LINE",
"37 134 LINE",
"19 134 LINE",
"19 0 LINE"
);
}
);
width = 56;
}
);
unicode = 0049;
userData = {
com.typemytype.robofont.layerData = {
background = {
anchors = (
);
components = (
);
contours = (
);
lib = {
};
name = l;
unicodes = (
);
width = 56;
};
};
};
},
{
glyphname = L;
layers = (
{
layerId = "D055DC6D-3381-4E90-8C7D-0AB98A8347A5";
paths = (
{
closed = 1;
nodes = (
"96 0 LINE",
"96 15 LINE",
"28 15 LINE",
"28 0 LINE"
);
},
{
closed = 1;
nodes = (
"37 0 LINE",
"37 134 LINE",
"19 134 LINE",
"19 0 LINE"
);
}
);
width = 105;
}
);
unicode = 004C;
userData = {
com.typemytype.robofont.layerData = {
background = {
anchors = (
);
components = (
);
contours = (
);
lib = {
};
name = l;
unicodes = (
);
width = 105;
};
};
com.typemytype.robofont.mark = (
1,
0.5675,
0.4681,
1
);
};
},
{
glyphname = M;
layers = (
{
layerId = "D055DC6D-3381-4E90-8C7D-0AB98A8347A5";
paths = (
{
closed = 1;
nodes = (
"122 69 LINE",
"145 134 LINE",
"130 134 LINE",
"99 53 LINE",
"80 0 LINE",
"96 0 LINE"
);
},
{
closed = 1;
nodes = (
"94 0 LINE",
"76 54 LINE",
"45 134 LINE",
"29 134 LINE",
"51 69 LINE",
"78 0 LINE"
);
},
{
closed = 1;
nodes = (
"158 0 LINE",
"147 134 LINE",
"131 134 LINE",
"134 74 LINE",
"140 0 LINE"
);
},
{
closed = 1;
nodes = (
"33 0 LINE",
"39 73 LINE",
"43 134 LINE",
"27 134 LINE",
"16 0 LINE"
);
}
);
width = 174;
}
);
unicode = 004D;
userData = {
com.typemytype.robofont.layerData = {
background = {
anchors = (
);
components = (
);
contours = (
{
points = (
{
segmentType = line;
smooth = 0;
x = 96;
y = 0;
},
{
segmentType = line;
smooth = 0;
x = 147;
y = 134;
},
{
segmentType = line;
smooth = 0;
x = 129;
y = 134;
},
{
segmentType = line;
smooth = 0;
x = 78;
y = 0;
}
);
},
{
points = (
{
segmentType = line;
smooth = 0;
x = 78;
y = 0;
},
{
segmentType = line;
smooth = 0;
x = 96;
y = 0;
},
{
segmentType = line;
smooth = 0;
x = 45;
y = 134;
},
{
segmentType = line;
smooth = 0;
x = 27;
y = 134;
}
);
},
{
points = (
{
segmentType = line;
smooth = 0;
x = 140;
y = 0;
},
{
segmentType = line;
smooth = 0;
x = 158;
y = 0;
},
{
segmentType = line;
smooth = 0;
x = 147;
y = 134;
},
{
segmentType = line;
smooth = 0;
x = 129;
y = 134;
}
);
},
{
points = (
{
segmentType = line;
smooth = 0;
x = 16;
y = 0;
},
{
segmentType = line;
smooth = 0;
x = 34;
y = 0;
},
{
segmentType = line;
smooth = 0;
x = 45;
y = 134;
},
{
segmentType = line;
smooth = 0;
x = 27;
y = 134;
}
);
}
);
lib = {
};
name = l;
unicodes = (
);
width = 174;
};
};
com.typemytype.robofont.mark = (
1,
0.5675,
0.4681,
1
);
};
},
{
glyphname = N;
layers = (
{
layerId = "D055DC6D-3381-4E90-8C7D-0AB98A8347A5";
paths = (
{
closed = 1;
nodes = (
"123 0 LINE",
"97 46 LINE",
"39 134 LINE",
"23 134 LINE",
"49 88 LINE",
"107 0 LINE"
);
},
{
closed = 1;
nodes = (
"127 0 LINE",
"127 134 LINE",
"109 134 LINE",
"109 0 LINE"
);
},
{
closed = 1;
nodes = (
"37 0 LINE",
"37 134 LINE",
"19 134 LINE",
"19 0 LINE"
);
}
);
width = 146;
}
);
unicode = 004E;
userData = {
com.typemytype.robofont.layerData = {
background = {
anchors = (
);
components = (
);
contours = (
);
lib = {
};
name = l;
unicodes = (
);
width = 146;
};
};
};
},
{
glyphname = a;
layers = (
{
layerId = "D055DC6D-3381-4E90-8C7D-0AB98A8347A5";
paths = (
{
closed = 1;
nodes = (
"26 78 OFFCURVE",
"34 84 OFFCURVE",
"44 84 CURVE SMOOTH",
"56 84 OFFCURVE",
"61 78 OFFCURVE",
"61 65 CURVE SMOOTH",
"61 23 LINE SMOOTH",
"61 15 OFFCURVE",
"63 6 OFFCURVE",
"66 0 CURVE",
"82 0 LINE",
"79 7 OFFCURVE",
"77 15 OFFCURVE",
"77 27 CURVE SMOOTH",
"77 65 LINE SMOOTH",
"77 85 OFFCURVE",
"69 98 OFFCURVE",
"47 98 CURVE SMOOTH",
"31 98 OFFCURVE",
"19 90 OFFCURVE",
"12 81 CURVE",
"20 72 LINE"
);
},
{
closed = 1;
nodes = (
"25 52 OFFCURVE",
"10 40 OFFCURVE",
"10 23 CURVE SMOOTH",
"10 8 OFFCURVE",
"21 -2 OFFCURVE",
"36 -2 CURVE SMOOTH",
"50 -2 OFFCURVE",
"58 5 OFFCURVE",
"67 14 CURVE",
"61 24 LINE",
"55 17 OFFCURVE",
"48 11 OFFCURVE",
"39 11 CURVE SMOOTH",
"31 11 OFFCURVE",
"27 16 OFFCURVE",
"27 23 CURVE SMOOTH",
"27 33 OFFCURVE",
"34 41 OFFCURVE",
"57 43 CURVE SMOOTH",
"69 44 LINE",
"69 56 LINE",
"57 55 LINE SMOOTH"
);
}
);
width = 93;
}
);
unicode = 0061;
userData = {
com.typemytype.robofont.layerData = {
background = {
anchors = (
);
components = (
);
contours = (
{
points = (
{
segmentType = line;
smooth = 0;
x = 24;
y = 70;
},
{
smooth = 0;
x = 28;
y = 78;
},
{
smooth = 0;
x = 33;
y = 84;
},
{
segmentType = curve;
smooth = 1;
x = 44;
y = 84;
},
{
smooth = 0;
x = 56;
y = 84;
},
{
smooth = 0;
x = 61;
y = 78;
},
{
segmentType = curve;
smooth = 1;
x = 61;
y = 65;
},
{
segmentType = line;
smooth = 1;
x = 61;
y = 23;
},
{
smooth = 0;
x = 61;
y = 15;
},
{
smooth = 0;
x = 65;
y = 4;
},
{
segmentType = curve;
smooth = 0;
x = 69;
y = -2;
},
{
segmentType = line;
smooth = 0;
x = 83;
y = 3;
},
{
smooth = 0;
x = 79;
y = 10;
},
{
smooth = 0;
x = 77;
y = 18;
},
{
segmentType = curve;
smooth = 1;
x = 77;
y = 27;
},
{
segmentType = line;
smooth = 1;
x = 77;
y = 65;
},
{
smooth = 0;
x = 77;
y = 85;
},
{
smooth = 0;
x = 68;
y = 98;
},
{
segmentType = curve;
smooth = 1;
x = 46;
y = 98;
},
{
smooth = 0;
x = 25;
y = 98;
},
{
smooth = 0;
x = 16;
y = 86;
},
{
segmentType = curve;
smooth = 0;
x = 12;
y = 77;
}
);
},
{
points = (
{
segmentType = line;
smooth = 1;
x = 57;
y = 55;
},
{
smooth = 0;
x = 24;
y = 52;
},
{
smooth = 0;
x = 10;
y = 40;
},
{
segmentType = curve;
smooth = 1;
x = 10;
y = 23;
},
{
smooth = 0;
x = 10;
y = 7;
},
{
smooth = 0;
x = 21;
y = -2;
},
{
segmentType = curve;
smooth = 1;
x = 36;
y = -2;
},
{
smooth = 0;
x = 50;
y = -2;
},
{
smooth = 0;
x = 59;
y = 5;
},
{
segmentType = curve;
smooth = 0;
x = 67;
y = 14;
},
{
segmentType = line;
smooth = 0;
x = 61;
y = 24;
},
{
smooth = 0;
x = 55;
y = 16;
},
{
smooth = 0;
x = 48;
y = 11;
},
{
segmentType = curve;
smooth = 1;
x = 40;
y = 11;
},
{
smooth = 0;
x = 31;
y = 11;
},
{
smooth = 0;
x = 27;
y = 17;
},
{
segmentType = curve;
smooth = 1;
x = 27;
y = 24;
},
{
smooth = 0;
x = 27;
y = 33;
},
{
smooth = 0;
x = 34;
y = 41;
},
{
segmentType = curve;
smooth = 1;
x = 57;
y = 43;
},
{
segmentType = line;
smooth = 0;
x = 69;
y = 44;
},
{
segmentType = line;
smooth = 0;
x = 69;
y = 56;
}
);
}
);
lib = {
};
name = a;
unicodes = (
);
width = 93;
};
};
};
},
{
glyphname = b;
layers = (
{
layerId = "D055DC6D-3381-4E90-8C7D-0AB98A8347A5";
paths = (
{
closed = 1;
nodes = (
"80 -3 OFFCURVE",
"98 17 OFFCURVE",
"98 50 CURVE SMOOTH",
"98 77 OFFCURVE",
"86 98 OFFCURVE",
"59 98 CURVE SMOOTH",
"46 98 OFFCURVE",
"35 92 OFFCURVE",
"27 83 CURVE",
"32 72 LINE",
"38 79 OFFCURVE",
"47 84 OFFCURVE",
"58 84 CURVE SMOOTH",
"74 84 OFFCURVE",
"81 72 OFFCURVE",
"81 50 CURVE SMOOTH",
"81 24 OFFCURVE",
"71 11 OFFCURVE",
"51 11 CURVE SMOOTH",
"39 11 OFFCURVE",
"29 14 OFFCURVE",
"21 19 CURVE",
"16 7 LINE",
"26 1 OFFCURVE",
"38 -3 OFFCURVE",
"51 -3 CURVE SMOOTH"
);
},
{
closed = 1;
nodes = (
"32 7 LINE",
"32 144 LINE",
"16 144 LINE",
"16 7 LINE"
);
}
);
width = 109;
}
);
unicode = 0062;
userData = {
com.typemytype.robofont.layerData = {
background = {
anchors = (
);
components = (
);
contours = (
{
points = (
{
segmentType = line;
smooth = 0;
x = 32;
y = 73;
},
{
smooth = 0;
x = 38;
y = 79;
},
{
smooth = 0;
x = 47;
y = 84;
},
{
segmentType = curve;
smooth = 1;
x = 57;
y = 84;
},
{
smooth = 0;
x = 68;
y = 84;
},
{
smooth = 0;
x = 73;
y = 78;
},
{
segmentType = curve;
smooth = 1;
x = 73;
y = 65;
},
{
segmentType = line;
smooth = 0;
x = 73;
y = 0;
},
{
segmentType = line;
smooth = 0;
x = 89;
y = 0;
},
{
segmentType = line;
smooth = 1;
x = 89;
y = 65;
},
{
smooth = 0;
x = 89;
y = 85;
},
{
smooth = 0;
x = 82;
y = 98;
},
{
segmentType = curve;
smooth = 1;
x = 61;
y = 98;
},
{
smooth = 0;
x = 48;
y = 98;
},
{
smooth = 0;
x = 34;
y = 91;
},
{
segmentType = curve;
smooth = 0;
x = 26;
y = 81;
}
);
},
{
points = (
{
segmentType = move;
smooth = 0;
x = 81;
y = 50;
},
{
smooth = 0;
x = 81;
y = 23;
},
{
smooth = 0;
x = 69;
y = 11;
},
{
segmentType = curve;
smooth = 1;
x = 49;
y = 11;
},
{
smooth = 0;
x = 39;
y = 11;
},
{
smooth = 0;
x = 29;
y = 14;
},
{
segmentType = curve;
smooth = 0;
x = 21;
y = 19;
},
{
segmentType = line;
smooth = 0;
x = 16;
y = 7;
},
{
smooth = 0;
x = 26;
y = 1;
},
{
smooth = 0;
x = 38;
y = -3;
},
{
segmentType = curve;
smooth = 1;
x = 50;
y = -3;
},
{
smooth = 0;
x = 80;
y = -3;
},
{
smooth = 0;
x = 98;
y = 17;
},
{
segmentType = curve;
smooth = 1;
x = 98;
y = 51;
}
);
}
);
lib = {
};
name = b;
unicodes = (
);
width = 109;
};
};
};
},
{
glyphname = c;
layers = (
{
layerId = "D055DC6D-3381-4E90-8C7D-0AB98A8347A5";
paths = (
{
closed = 1;
nodes = (
"79 91 OFFCURVE",
"69 99 OFFCURVE",
"53 99 CURVE SMOOTH",
"26 99 OFFCURVE",
"11 79 OFFCURVE",
"11 48 CURVE SMOOTH",
"11 16 OFFCURVE",
"26 -3 OFFCURVE",
"52 -3 CURVE SMOOTH",
"66 -3 OFFCURVE",
"77 2 OFFCURVE",
"87 14 CURVE",
"77 23 LINE",
"70 15 OFFCURVE",
"63 11 OFFCURVE",
"52 11 CURVE SMOOTH",
"38 11 OFFCURVE",
"28 21 OFFCURVE",
"28 48 CURVE SMOOTH",
"28 72 OFFCURVE",
"36 85 OFFCURVE",
"53 85 CURVE SMOOTH",
"63 85 OFFCURVE",
"70 79 OFFCURVE",
"75 73 CURVE",
"86 82 LINE"
);
}
);
width = 93;
}
);
unicode = 0063;
userData = {
com.typemytype.robofont.layerData = {
background = {
anchors = (
);
components = (
);
contours = (
{
points = (
{
segmentType = line;
smooth = 0;
x = 89;
y = 48;
},
{
segmentType = line;
smooth = 1;
x = 89;
y = 52;
},
{
smooth = 0;
x = 89;
y = 81;
},
{
smooth = 0;
x = 76;
y = 99;
},
{
segmentType = curve;
smooth = 1;
x = 51;
y = 99;
},
{
smooth = 0;
x = 27;
y = 99;
},
{
smooth = 0;
x = 11;
y = 79;
},
{
segmentType = curve;
smooth = 1;
x = 11;
y = 48;
},
{
smooth = 0;
x = 11;
y = 17;
},
{
smooth = 0;
x = 26;
y = -3;
},
{
segmentType = curve;
smooth = 1;
x = 53;
y = -3;
},
{
smooth = 0;
x = 67;
y = -3;
},
{
smooth = 0;
x = 79;
y = 2;
},
{
segmentType = curve;
smooth = 0;
x = 89;
y = 10;
},
{
segmentType = line;
smooth = 0;
x = 82;
y = 21;
},
{
smooth = 0;
x = 73;
y = 14;
},
{
smooth = 0;
x = 65;
y = 11;
},
{
segmentType = curve;
smooth = 1;
x = 56;
y = 11;
},
{
smooth = 0;
x = 38;
y = 11;
},
{
smooth = 0;
x = 28;
y = 21;
},
{
segmentType = curve;
smooth = 1;
x = 28;
y = 48;
},
{
smooth = 0;
x = 28;
y = 72;
},
{
smooth = 0;
x = 36;
y = 85;
},
{
segmentType = curve;
smooth = 1;
x = 51;
y = 85;
},
{
smooth = 0;
x = 66;
y = 85;
},
{
smooth = 0;
x = 72;
y = 74;
},
{
segmentType = curve;
smooth = 0;
x = 72;
y = 54;
},
{
segmentType = line;
smooth = 0;
x = 79;
y = 61;
}
);
}
);
lib = {
};
name = e;
unicodes = (
);
width = 93;
};
};
};
},
{
glyphname = d;
layers = (
{
layerId = "D055DC6D-3381-4E90-8C7D-0AB98A8347A5";
paths = (
{
closed = 1;
nodes = (
"93 0 LINE",
"93 144 LINE",
"77 144 LINE",
"77 0 LINE"
);
},
{
closed = 1;
nodes = (
"63 -2 OFFCURVE",
"74 4 OFFCURVE",
"82 13 CURVE",
"77 24 LINE",
"71 17 OFFCURVE",
"62 12 OFFCURVE",
"51 12 CURVE SMOOTH",
"35 12 OFFCURVE",
"28 24 OFFCURVE",
"28 48 CURVE SMOOTH",
"28 72 OFFCURVE",
"35 84 OFFCURVE",
"51 84 CURVE SMOOTH",
"62 84 OFFCURVE",
"71 79 OFFCURVE",
"77 72 CURVE",
"82 83 LINE",
"74 92 OFFCURVE",
"63 98 OFFCURVE",
"50 98 CURVE SMOOTH",
"23 98 OFFCURVE",
"11 77 OFFCURVE",
"11 48 CURVE SMOOTH",
"11 19 OFFCURVE",
"23 -2 OFFCURVE",
"50 -2 CURVE SMOOTH"
);
}
);
width = 109;
}
);
unicode = 0064;
userData = {
com.typemytype.robofont.layerData = {
background = {
anchors = (
);
components = (
);
contours = (
{
points = (
{
segmentType = line;
smooth = 0;
x = 77;
y = 23;
},
{
smooth = 0;
x = 71;
y = 17;
},
{
smooth = 0;
x = 62;
y = 12;
},
{
segmentType = curve;
smooth = 1;
x = 52;
y = 12;
},
{
smooth = 0;
x = 41;
y = 12;
},
{
smooth = 0;
x = 36;
y = 18;
},
{
segmentType = curve;
smooth = 1;
x = 36;
y = 31;
},
{
segmentType = line;
smooth = 0;
x = 36;
y = 96;
},
{
segmentType = line;
smooth = 0;
x = 20;
y = 96;
},
{
segmentType = line;
smooth = 1;
x = 20;
y = 31;
},
{
smooth = 0;
x = 20;
y = 11;
},
{
smooth = 0;
x = 27;
y = -2;
},
{
segmentType = curve;
smooth = 1;
x = 48;
y = -2;
},
{
smooth = 0;
x = 61;
y = -2;
},
{
smooth = 0;
x = 75;
y = 5;
},
{
segmentType = curve;
smooth = 0;
x = 83;
y = 15;
}
);
},
{
points = (
{
segmentType = line;
smooth = 0;
x = 93;
y = 96;
},
{
segmentType = line;
smooth = 0;
x = 77;
y = 96;
},
{
segmentType = line;
smooth = 0;
x = 77;
y = 0;
},
{
segmentType = line;
smooth = 0;
x = 93;
y = 0;
}
);
},
{
points = (
{
segmentType = move;
x = 11;
y = 48;
},
{
smooth = 0;
x = 11;
y = 15;
},
{
smooth = 0;
x = 24;
y = -2;
},
{
segmentType = curve;
smooth = 1;
x = 48;
y = -2;
},
{
smooth = 0;
x = 63;
y = -2;
},
{
smooth = 0;
x = 74;
y = 5;
},
{
segmentType = curve;
smooth = 0;
x = 83;
y = 15;
},
{
segmentType = line;
smooth = 0;
x = 77;
y = 23;
},
{
smooth = 0;
x = 69;
y = 16;
},
{
smooth = 0;
x = 62;
y = 12;
},
{
segmentType = curve;
smooth = 1;
x = 52;
y = 12;
},
{
smooth = 0;
x = 35;
y = 12;
},
{
smooth = 0;
x = 28;
y = 23;
},
{
segmentType = curve;
smooth = 1;
x = 28;
y = 48;
}
);
}
);
lib = {
};
name = b;
unicodes = (
);
width = 109;
};
};
};
},
{
glyphname = e;
layers = (
{
layerId = "D055DC6D-3381-4E90-8C7D-0AB98A8347A5";
paths = (
{
closed = 1;
nodes = (
"89 52 LINE SMOOTH",
"89 81 OFFCURVE",
"76 99 OFFCURVE",
"51 99 CURVE SMOOTH",
"27 99 OFFCURVE",
"11 79 OFFCURVE",
"11 48 CURVE SMOOTH",
"11 17 OFFCURVE",
"26 -3 OFFCURVE",
"53 -3 CURVE SMOOTH",
"67 -3 OFFCURVE",
"79 2 OFFCURVE",
"89 10 CURVE",
"82 21 LINE",
"73 14 OFFCURVE",
"65 11 OFFCURVE",
"56 11 CURVE SMOOTH",
"38 11 OFFCURVE",
"28 21 OFFCURVE",
"28 48 CURVE SMOOTH",
"28 72 OFFCURVE",
"36 85 OFFCURVE",
"51 85 CURVE SMOOTH",
"66 85 OFFCURVE",
"72 74 OFFCURVE",
"72 54 CURVE",
"79 61 LINE",
"23 61 LINE",
"23 48 LINE",
"89 48 LINE"
);
}
);
width = 102;
}
);
unicode = 0065;
userData = {
com.typemytype.robofont.layerData = {
background = {
anchors = (
);
components = (
);
contours = (
{
points = (
{
segmentType = curve;
smooth = 1;
x = 55;
y = 11;
},
{
smooth = 0;
x = 39;
y = 11;
},
{
smooth = 0;
x = 28;
y = 23;
},
{
segmentType = curve;
smooth = 1;
x = 28;
y = 48;
},
{
smooth = 0;
x = 28;
y = 73;
},
{
smooth = 0;
x = 39;
y = 85;
},
{
segmentType = curve;
smooth = 1;
x = 55;
y = 85;
},
{
smooth = 0;
x = 71;
y = 85;
},
{
smooth = 0;
x = 82;
y = 73;
},
{
segmentType = curve;
smooth = 1;
x = 82;
y = 48;
},
{
smooth = 0;
x = 82;
y = 23;
},
{
smooth = 0;
x = 71;
y = 11;
}
);
},
{
points = (
{
segmentType = curve;
smooth = 1;
x = 55;
y = -3;
},
{
smooth = 0;
x = 83;
y = -3;
},
{
smooth = 0;
x = 99;
y = 19;
},
{
segmentType = curve;
smooth = 1;
x = 99;
y = 48;
},
{
smooth = 0;
x = 99;
y = 77;
},
{
smooth = 0;
x = 83;
y = 99;
},
{
segmentType = curve;
smooth = 1;
x = 55;
y = 99;
},
{
smooth = 0;
x = 27;
y = 99;
},
{
smooth = 0;
x = 11;
y = 77;
},
{
segmentType = curve;
smooth = 1;
x = 11;
y = 48;
},
{
smooth = 0;
x = 11;
y = 19;
},
{
smooth = 0;
x = 27;
y = -3;
}
);
}
);
lib = {
};
name = e;
unicodes = (
);
width = 102;
};
};
};
},
{
glyphname = f;
layers = (
{
layerId = "D055DC6D-3381-4E90-8C7D-0AB98A8347A5";
paths = (
{
closed = 1;
nodes = (
"84 132 LINE",
"77 140 OFFCURVE",
"67 146 OFFCURVE",
"54 146 CURVE SMOOTH",
"32 146 OFFCURVE",
"21 132 OFFCURVE",
"21 112 CURVE SMOOTH",
"21 0 LINE",
"37 0 LINE",
"37 113 LINE SMOOTH",
"37 126 OFFCURVE",
"43 133 OFFCURVE",
"54 133 CURVE SMOOTH",
"64 133 OFFCURVE",
"70 128 OFFCURVE",
"75 123 CURVE"
);
},
{
closed = 1;
nodes = (
"63 83 LINE",
"63 96 LINE",
"6 96 LINE",
"6 83 LINE"
);
}
);
width = 67;
}
);
unicode = 0066;
userData = {
com.typemytype.robofont.layerData = {
background = {
anchors = (
);
components = (
);
contours = (
{
points = (
{
segmentType = line;
smooth = 0;
x = 81;
y = 23;
},
{
smooth = 0;
x = 75;
y = 17;
},
{
smooth = 0;
x = 65;
y = 12;
},
{
segmentType = curve;
smooth = 1;
x = 55;
y = 12;
},
{
smooth = 0;
x = 43;
y = 12;
},
{
smooth = 0;
x = 37;
y = 18;
},
{
segmentType = curve;
smooth = 1;
x = 37;
y = 31;
},
{
segmentType = line;
smooth = 0;
x = 37;
y = 116;
},
{
segmentType = line;
smooth = 0;
x = 21;
y = 116;
},
{
segmentType = line;
smooth = 1;
x = 21;
y = 31;
},
{
smooth = 0;
x = 21;
y = 11;
},
{
smooth = 0;
x = 29;
y = -2;
},
{
segmentType = curve;
smooth = 1;
x = 51;
y = -2;
},
{
smooth = 0;
x = 64;
y = -2;
},
{
smooth = 0;
x = 79;
y = 5;
},
{
segmentType = curve;
smooth = 0;
x = 87;
y = 15;
}
);
},
{
points = (
{
segmentType = curve;
smooth = 0;
x = 63;
y = 130;
},
{
segmentType = line;
smooth = 0;
x = 65;
y = 141;
},
{
smooth = 0;
x = 59;
y = 144;
},
{
smooth = 0;
x = 51;
y = 146;
},
{
segmentType = curve;
smooth = 1;
x = 43;
y = 146;
},
{
smooth = 0;
x = 30;
y = 146;
},
{
smooth = 0;
x = 21;
y = 140;
},
{
segmentType = curve;
smooth = 1;
x = 21;
y = 123;
},
{
segmentType = line;
smooth = 0;
x = 21;
y = 0;
},
{
segmentType = line;
smooth = 0;
x = 37;
y = 0;
},
{
segmentType = line;
smooth = 1;
x = 37;
y = 120;
},
{
smooth = 0;
x = 37;
y = 129;
},
{
smooth = 0;
x = 41;
y = 133;
},
{
segmentType = curve;
smooth = 1;
x = 48;
y = 133;
},
{
smooth = 0;
x = 52;
y = 133;
},
{
smooth = 0;
x = 57;
y = 132;
}
);
},
{
points = (
{
segmentType = line;
smooth = 0;
x = 5;
y = 83;
},
{
segmentType = line;
smooth = 0;
x = 62;
y = 83;
},
{
segmentType = line;
smooth = 0;
x = 62;
y = 96;
},
{
segmentType = line;
smooth = 0;
x = 5;
y = 96;
}
);
}
);
lib = {
};
name = n;
unicodes = (
);
width = 67;
};
};
};
},
{
glyphname = g;
layers = (
{
layerId = "D055DC6D-3381-4E90-8C7D-0AB98A8347A5";
paths = (
{
closed = 1;
nodes = (
"70 31 OFFCURVE",
"86 44.222 OFFCURVE",
"86 65 CURVE SMOOTH",
"86 85.778 OFFCURVE",
"70 99 OFFCURVE",
"50 99 CURVE SMOOTH",
"30 99 OFFCURVE",
"14 85.778 OFFCURVE",
"14 65 CURVE SMOOTH",
"14 44.222 OFFCURVE",
"30 31 OFFCURVE",
"50 31 CURVE SMOOTH"
);
},
{
closed = 1;
nodes = (
"38 44 OFFCURVE",
"31 51.304 OFFCURVE",
"31 65 CURVE SMOOTH",
"31 78.696 OFFCURVE",
"38 86 OFFCURVE",
"50 86 CURVE SMOOTH",
"62 86 OFFCURVE",
"69 78.696 OFFCURVE",
"69 65 CURVE SMOOTH",
"69 51.304 OFFCURVE",
"62 44 OFFCURVE",
"50 44 CURVE SMOOTH"
);
},
{
closed = 1;
nodes = (
"101 83 LINE",
"101 96 LINE",
"64 96 LINE",
"64 83 LINE"
);
},
{
closed = 1;
nodes = (
"21 36 OFFCURVE",
"14 28 OFFCURVE",
"14 19 CURVE SMOOTH",
"14 8 OFFCURVE",
"21.978 1.859 OFFCURVE",
"34 1 CURVE SMOOTH",
"62 -1 LINE SMOOTH",
"75 -2 OFFCURVE",
"81 -7 OFFCURVE",
"81 -14 CURVE SMOOTH",
"81 -27 OFFCURVE",
"66 -33 OFFCURVE",
"46 -33 CURVE SMOOTH",
"32 -33 OFFCURVE",
"21 -30 OFFCURVE",
"21 -21 CURVE SMOOTH",
"21 -11 OFFCURVE",
"33 -3 OFFCURVE",
"49 0 CURVE",
"47 8 LINE",
"14 1 OFFCURVE",
"5 -11 OFFCURVE",
"5 -22 CURVE SMOOTH",
"5 -38 OFFCURVE",
"23 -46 OFFCURVE",
"47 -46 CURVE SMOOTH",
"77 -46 OFFCURVE",
"97 -33 OFFCURVE",
"97 -12 CURVE SMOOTH",
"97 4 OFFCURVE",
"85 12 OFFCURVE",
"66 13 CURVE SMOOTH",
"41 15 LINE SMOOTH",
"32.915 15.647 OFFCURVE",
"30 17.667 OFFCURVE",
"30 23 CURVE SMOOTH",
"30 26.385 OFFCURVE",
"32.945 30.967 OFFCURVE",
"38 34 CURVE",
"28 41 LINE"
);
}
);
width = 104;
}
);
unicode = 0067;
userData = {
com.typemytype.robofont.layerData = {
background = {
anchors = (
);
components = (
);
contours = (
{
points = (
{
segmentType = curve;
smooth = 1;
x = 50;
y = 27;
},
{
smooth = 0;
x = 70;
y = 27;
},
{
smooth = 0;
x = 86;
y = 41;
},
{
segmentType = curve;
smooth = 1;
x = 86;
y = 63;
},
{
smooth = 0;
x = 86;
y = 85;
},
{
smooth = 0;
x = 70;
y = 99;
},
{
segmentType = curve;
smooth = 1;
x = 50;
y = 99;
},
{
smooth = 0;
x = 30;
y = 99;
},
{
smooth = 0;
x = 14;
y = 85;
},
{
segmentType = curve;
smooth = 1;
x = 14;
y = 63;
},
{
smooth = 0;
x = 14;
y = 41;
},
{
smooth = 0;
x = 30;
y = 27;
}
);
},
{
points = (
{
segmentType = curve;
smooth = 1;
x = 50;
y = 40;
},
{
smooth = 0;
x = 38;
y = 40;
},
{
smooth = 0;
x = 31;
y = 48;
},
{
segmentType = curve;
smooth = 1;
x = 31;
y = 63;
},
{
smooth = 0;
x = 31;
y = 78;
},
{
smooth = 0;
x = 38;
y = 86;
},
{
segmentType = curve;
smooth = 1;
x = 50;
y = 86;
},
{
smooth = 0;
x = 62;
y = 86;
},
{
smooth = 0;
x = 69;
y = 78;
},
{
segmentType = curve;
smooth = 1;
x = 69;
y = 63;
},
{
smooth = 0;
x = 69;
y = 48;
},
{
smooth = 0;
x = 62;
y = 40;
}
);
},
{
points = (
{
segmentType = line;
smooth = 0;
x = 64;
y = 83;
},
{
segmentType = line;
smooth = 0;
x = 101;
y = 83;
},
{
segmentType = line;
smooth = 0;
x = 101;
y = 96;
},
{
segmentType = line;
smooth = 0;
x = 64;
y = 96;
}
);
},
{
points = (
{
segmentType = line;
smooth = 0;
x = 41;
y = 37;
},
{
smooth = 0;
x = 24.47604;
y = 29.77077;
},
{
smooth = 0;
x = 14;
y = 22;
},
{
segmentType = curve;
smooth = 1;
x = 14;
y = 10;
},
{
smooth = 0;
x = 14;
y = -2;
},
{
smooth = 0;
x = 22.40721;
y = -9.17194;
},
{
segmentType = curve;
smooth = 1;
x = 34;
y = -10;
},
{
segmentType = line;
smooth = 1;
x = 62;
y = -12;
},
{
smooth = 0;
x = 73;
y = -13;
},
{
smooth = 0;
x = 81;
y = -17;
},
{
segmentType = curve;
smooth = 1;
x = 81;
y = -26;
},
{
smooth = 0;
x = 81;
y = -40;
},
{
smooth = 0;
x = 66;
y = -47;
},
{
segmentType = curve;
smooth = 1;
x = 48;
y = -47;
},
{
smooth = 0;
x = 32;
y = -47;
},
{
smooth = 0;
x = 21;
y = -43;
},
{
segmentType = curve;
smooth = 1;
x = 21;
y = -32;
},
{
smooth = 0;
x = 21;
y = -22;
},
{
smooth = 0;
x = 33;
y = -13;
},
{
segmentType = curve;
smooth = 0;
x = 49;
y = -10;
},
{
segmentType = line;
smooth = 0;
x = 45;
y = -1;
},
{
smooth = 0;
x = 15;
y = -10;
},
{
smooth = 0;
x = 5;
y = -21;
},
{
segmentType = curve;
smooth = 1;
x = 5;
y = -34;
},
{
smooth = 0;
x = 5;
y = -52;
},
{
smooth = 0;
x = 21;
y = -60;
},
{
segmentType = curve;
smooth = 1;
x = 48;
y = -60;
},
{
smooth = 0;
x = 79;
y = -60;
},
{
smooth = 0;
x = 97;
y = -45;
},
{
segmentType = curve;
smooth = 1;
x = 97;
y = -24;
},
{
smooth = 0;
x = 97;
y = -7;
},
{
smooth = 0;
x = 85;
y = 2;
},
{
segmentType = curve;
smooth = 1;
x = 69;
y = 3;
},
{
segmentType = line;
smooth = 1;
x = 41;
y = 5;
},
{
smooth = 0;
x = 33;
y = 6;
},
{
smooth = 0;
x = 30;
y = 8;
},
{
segmentType = curve;
smooth = 1;
x = 30;
y = 13;
},
{
smooth = 0;
x = 30;
y = 19;
},
{
smooth = 0;
x = 36.45762;
y = 23.78305;
},
{
segmentType = curve;
smooth = 0;
x = 47;
y = 28;
}
);
}
);
lib = {
};
name = g;
unicodes = (
);
width = 104;
};
};
};
},
{
glyphname = h;
layers = (
{
layerId = "D055DC6D-3381-4E90-8C7D-0AB98A8347A5";
paths = (
{
closed = 1;
nodes = (
"38 79 OFFCURVE",
"47 84 OFFCURVE",
"57 84 CURVE SMOOTH",
"68 84 OFFCURVE",
"73 78 OFFCURVE",
"73 65 CURVE SMOOTH",
"73 0 LINE",
"89 0 LINE",
"89 65 LINE SMOOTH",
"89 85 OFFCURVE",
"82 98 OFFCURVE",
"61 98 CURVE SMOOTH",
"48 98 OFFCURVE",
"34 91 OFFCURVE",
"26 81 CURVE",
"32 73 LINE"
);
},
{
closed = 1;
nodes = (
"32 0 LINE",
"32 144 LINE",
"16 144 LINE",
"16 0 LINE"
);
}
);
width = 105;
}
);
unicode = 0068;
userData = {
com.typemytype.robofont.layerData = {
background = {
anchors = (
);
components = (
);
contours = (
);
lib = {
};
name = n;
unicodes = (
);
width = 105;
};
};
};
},
{
glyphname = i;
layers = (
{
layerId = "D055DC6D-3381-4E90-8C7D-0AB98A8347A5";
paths = (
{
closed = 1;
nodes = (
"32 0 LINE",
"32 96 LINE",
"16 96 LINE",
"16 0 LINE"
);
},
{
closed = 1;
nodes = (
"31 112 OFFCURVE",
"36 117 OFFCURVE",
"36 124 CURVE SMOOTH",
"36 131 OFFCURVE",
"31 136 OFFCURVE",
"24 136 CURVE SMOOTH",
"17 136 OFFCURVE",
"12 131 OFFCURVE",
"12 124 CURVE SMOOTH",
"12 117 OFFCURVE",
"17 112 OFFCURVE",
"24 112 CURVE SMOOTH"
);
}
);
width = 48;
}
);
unicode = 0069;
userData = {
com.typemytype.robofont.layerData = {
background = {
anchors = (
);
components = (
);
contours = (
);
lib = {
};
name = i;
unicodes = (
);
width = 48;
};
};
};
},
{
glyphname = j;
layers = (
{
layerId = "D055DC6D-3381-4E90-8C7D-0AB98A8347A5";
paths = (
{
closed = 1;
nodes = (
"-7 -43 LINE",
"-2 -45 OFFCURVE",
"4 -46 OFFCURVE",
"9 -46 CURVE SMOOTH",
"22 -46 OFFCURVE",
"32 -40 OFFCURVE",
"32 -22 CURVE SMOOTH",
"32 96 LINE",
"16 96 LINE",
"16 -21 LINE SMOOTH",
"16 -29 OFFCURVE",
"12.667 -32 OFFCURVE",
"6 -32 CURVE SMOOTH",
"3 -32 OFFCURVE",
"-1 -31 OFFCURVE",
"-4 -30 CURVE"
);
},
{
closed = 1;
nodes = (
"31 112 OFFCURVE",
"36 117 OFFCURVE",
"36 124 CURVE SMOOTH",
"36 131 OFFCURVE",
"31 136 OFFCURVE",
"24 136 CURVE SMOOTH",
"17 136 OFFCURVE",
"12 131 OFFCURVE",
"12 124 CURVE SMOOTH",
"12 117 OFFCURVE",
"17 112 OFFCURVE",
"24 112 CURVE SMOOTH"
);
}
);
width = 48;
}
);
unicode = 006A;
userData = {
com.typemytype.robofont.layerData = {
background = {
anchors = (
);
components = (
);
contours = (
{
points = (
{
segmentType = line;
smooth = 0;
x = 16;
y = -44;
},
{
segmentType = line;
smooth = 0;
x = 32;
y = -44;
},
{
segmentType = line;
smooth = 0;
x = 32;
y = 96;
},
{
segmentType = line;
smooth = 0;
x = 16;
y = 96;
}
);
},
{
points = (
{
segmentType = curve;
smooth = 0;
x = -10;
y = -30;
},
{
segmentType = line;
smooth = 0;
x = -12;
y = -41;
},
{
smooth = 0;
x = -6;
y = -44;
},
{
smooth = 0;
x = 2;
y = -46;
},
{
segmentType = curve;
smooth = 1;
x = 10;
y = -46;
},
{
smooth = 0;
x = 23;
y = -46;
},
{
smooth = 0;
x = 32;
y = -40;
},
{
segmentType = curve;
smooth = 1;
x = 32;
y = -23;
},
{
segmentType = line;
smooth = 0;
x = 32;
y = 96;
},
{
segmentType = line;
smooth = 0;
x = 16;
y = 96;
},
{
segmentType = line;
smooth = 1;
x = 16;
y = -20;
},
{
smooth = 0;
x = 16;
y = -29;
},
{
smooth = 0;
x = 12;
y = -33;
},
{
segmentType = curve;
smooth = 1;
x = 5;
y = -33;
},
{
smooth = 0;
x = 1;
y = -33;
},
{
smooth = 0;
x = -4;
y = -32;
}
);
}
);
lib = {
};
name = i;
unicodes = (
);
width = 48;
};
};
};
},
{
glyphname = k;
layers = (
{
layerId = "D055DC6D-3381-4E90-8C7D-0AB98A8347A5";
paths = (
{
closed = 1;
nodes = (
"95 0 LINE",
"47 56 LINE",
"47 49 LINE",
"89 96 LINE",
"68 96 LINE",
"31 52 LINE",
"74 0 LINE"
);
},
{
closed = 1;
nodes = (
"32 0 LINE",
"32 144 LINE",
"16 144 LINE",
"16 0 LINE"
);
}
);
width = 97;
}
);
unicode = 006B;
userData = {
com.typemytype.robofont.layerData = {
background = {
anchors = (
);
components = (
);
contours = (
);
lib = {
};
name = l;
unicodes = (
);
width = 97;
};
};
};
},
{
glyphname = l;
layers = (
{
layerId = "D055DC6D-3381-4E90-8C7D-0AB98A8347A5";
paths = (
{
closed = 1;
nodes = (
"32 0 LINE",
"32 144 LINE",
"16 144 LINE",
"16 0 LINE"
);
}
);
width = 48;
}
);
unicode = 006C;
userData = {
com.typemytype.robofont.layerData = {
background = {
anchors = (
);
components = (
);
contours = (
);
lib = {
};
name = l;
unicodes = (
);
width = 48;
};
};
};
},
{
glyphname = m;
layers = (
{
layerId = "D055DC6D-3381-4E90-8C7D-0AB98A8347A5";
paths = (
{
closed = 1;
nodes = (
"93 79 OFFCURVE",
"102 84 OFFCURVE",
"112 84 CURVE SMOOTH",
"123 84 OFFCURVE",
"128 78 OFFCURVE",
"128 65 CURVE SMOOTH",
"128 0 LINE",
"144 0 LINE",
"144 65 LINE SMOOTH",
"144 85 OFFCURVE",
"137 98 OFFCURVE",
"115 98 CURVE SMOOTH",
"101 98 OFFCURVE",
"87 91 OFFCURVE",
"80 83 CURVE",
"87 73 LINE"
);
},
{
closed = 1;
nodes = (
"37 79 OFFCURVE",
"46 84 OFFCURVE",
"56 84 CURVE SMOOTH",
"67 84 OFFCURVE",
"72 78 OFFCURVE",
"72 65 CURVE SMOOTH",
"72 0 LINE",
"88 0 LINE",
"88 65 LINE SMOOTH",
"88 85 OFFCURVE",
"81 98 OFFCURVE",
"60 98 CURVE SMOOTH",
"47 98 OFFCURVE",
"33 91 OFFCURVE",
"25 81 CURVE",
"31 73 LINE"
);
},
{
closed = 1;
nodes = (
"32 0 LINE",
"32 96 LINE",
"16 96 LINE",
"16 0 LINE"
);
}
);
width = 160;
}
);
unicode = 006D;
userData = {
com.typemytype.robofont.layerData = {
background = {
anchors = (
);
components = (
);
contours = (
{
points = (
{
segmentType = line;
smooth = 0;
x = 87;
y = 73;
},
{
smooth = 0;
x = 93;
y = 79;
},
{
smooth = 0;
x = 102;
y = 84;
},
{
segmentType = curve;
smooth = 1;
x = 112;
y = 84;
},
{
smooth = 0;
x = 123;
y = 84;
},
{
smooth = 0;
x = 128;
y = 78;
},
{
segmentType = curve;
smooth = 1;
x = 128;
y = 65;
},
{
segmentType = line;
smooth = 0;
x = 128;
y = 0;
},
{
segmentType = line;
smooth = 0;
x = 144;
y = 0;
},
{
segmentType = line;
smooth = 1;
x = 144;
y = 65;
},
{
smooth = 0;
x = 144;
y = 85;
},
{
smooth = 0;
x = 137;
y = 98;
},
{
segmentType = curve;
smooth = 1;
x = 116;
y = 98;
},
{
smooth = 0;
x = 103;
y = 98;
},
{
smooth = 0;
x = 89;
y = 91;
},
{
segmentType = curve;
smooth = 0;
x = 81;
y = 81;
}
);
},
{
points = (
{
segmentType = line;
smooth = 0;
x = 31;
y = 73;
},
{
smooth = 0;
x = 37;
y = 79;
},
{
smooth = 0;
x = 46;
y = 84;
},
{
segmentType = curve;
smooth = 1;
x = 56;
y = 84;
},
{
smooth = 0;
x = 67;
y = 84;
},
{
smooth = 0;
x = 72;
y = 78;
},
{
segmentType = curve;
smooth = 1;
x = 72;
y = 65;
},
{
segmentType = line;
smooth = 0;
x = 72;
y = 0;
},
{
segmentType = line;
smooth = 0;
x = 88;
y = 0;
},
{
segmentType = line;
smooth = 1;
x = 88;
y = 65;
},
{
smooth = 0;
x = 88;
y = 85;
},
{
smooth = 0;
x = 81;
y = 98;
},
{
segmentType = curve;
smooth = 1;
x = 60;
y = 98;
},
{
smooth = 0;
x = 47;
y = 98;
},
{
smooth = 0;
x = 33;
y = 91;
},
{
segmentType = curve;
smooth = 0;
x = 25;
y = 81;
}
);
},
{
points = (
{
segmentType = line;
smooth = 0;
x = 16;
y = 0;
},
{
segmentType = line;
smooth = 0;
x = 32;
y = 0;
},
{
segmentType = line;
smooth = 0;
x = 32;
y = 96;
},
{
segmentType = line;
smooth = 0;
x = 16;
y = 96;
}
);
}
);
lib = {
};
name = n;
unicodes = (
);
width = 160;
};
};
};
},
{
glyphname = n;
layers = (
{
layerId = "D055DC6D-3381-4E90-8C7D-0AB98A8347A5";
paths = (
{
closed = 1;
nodes = (
"32 0 LINE",
"32 96 LINE",
"16 96 LINE",
"16 0 LINE"
);
},
{
closed = 1;
nodes = (
"38 79 OFFCURVE",
"47 84 OFFCURVE",
"57 84 CURVE SMOOTH",
"68 84 OFFCURVE",
"73 78 OFFCURVE",
"73 65 CURVE SMOOTH",
"73 0 LINE",
"89 0 LINE",
"89 65 LINE SMOOTH",
"89 85 OFFCURVE",
"82 98 OFFCURVE",
"61 98 CURVE SMOOTH",
"48 98 OFFCURVE",
"34 91 OFFCURVE",
"26 81 CURVE",
"32 73 LINE"
);
}
);
width = 105;
}
);
unicode = 006E;
userData = {
com.typemytype.robofont.layerData = {
background = {
anchors = (
);
components = (
);
contours = (
);
lib = {
};
name = n;
unicodes = (
);
width = 105;
};
};
};
},
{
glyphname = o;
layers = (
{
layerId = "D055DC6D-3381-4E90-8C7D-0AB98A8347A5";
paths = (
{
closed = 1;
nodes = (
"39 11 OFFCURVE",
"28 23 OFFCURVE",
"28 48 CURVE SMOOTH",
"28 73 OFFCURVE",
"39 85 OFFCURVE",
"55 85 CURVE SMOOTH",
"71 85 OFFCURVE",
"82 73 OFFCURVE",
"82 48 CURVE SMOOTH",
"82 23 OFFCURVE",
"71 11 OFFCURVE",
"55 11 CURVE SMOOTH"
);
},
{
closed = 1;
nodes = (
"83 -3 OFFCURVE",
"99 19 OFFCURVE",
"99 48 CURVE SMOOTH",
"99 77 OFFCURVE",
"83 99 OFFCURVE",
"55 99 CURVE SMOOTH",
"27 99 OFFCURVE",
"11 77 OFFCURVE",
"11 48 CURVE SMOOTH",
"11 19 OFFCURVE",
"27 -3 OFFCURVE",
"55 -3 CURVE SMOOTH"
);
}
);
width = 110;
}
);
unicode = 006F;
userData = {
com.typemytype.robofont.layerData = {
background = {
anchors = (
);
components = (
);
contours = (
);
lib = {
};
name = o;
unicodes = (
);
width = 110;
};
};
};
},
{
glyphname = p;
layers = (
{
layerId = "D055DC6D-3381-4E90-8C7D-0AB98A8347A5";
paths = (
{
closed = 1;
nodes = (
"86 -2 OFFCURVE",
"98 19 OFFCURVE",
"98 48 CURVE SMOOTH",
"98 77 OFFCURVE",
"86 98 OFFCURVE",
"59 98 CURVE SMOOTH",
"46 98 OFFCURVE",
"35 92 OFFCURVE",
"27 83 CURVE",
"32 72 LINE",
"38 79 OFFCURVE",
"47 84 OFFCURVE",
"58 84 CURVE SMOOTH",
"74 84 OFFCURVE",
"81 72 OFFCURVE",
"81 48 CURVE SMOOTH",
"81 24 OFFCURVE",
"74 12 OFFCURVE",
"58 12 CURVE SMOOTH",
"47 12 OFFCURVE",
"38 17 OFFCURVE",
"32 24 CURVE",
"27 13 LINE",
"35 4 OFFCURVE",
"46 -2 OFFCURVE",
"59 -2 CURVE SMOOTH"
);
},
{
closed = 1;
nodes = (
"32 -44 LINE",
"32 96 LINE",
"16 96 LINE",
"16 -44 LINE"
);
}
);
width = 109;
}
);
unicode = 0070;
userData = {
com.typemytype.robofont.layerData = {
background = {
anchors = (
);
components = (
);
contours = (
{
points = (
{
segmentType = line;
smooth = 0;
x = 16;
y = -44;
},
{
segmentType = line;
smooth = 0;
x = 32;
y = -44;
},
{
segmentType = line;
smooth = 0;
x = 32;
y = 96;
},
{
segmentType = line;
smooth = 0;
x = 16;
y = 96;
}
);
},
{
points = (
{
segmentType = curve;
smooth = 1;
x = 85;
y = 49;
},
{
smooth = 0;
x = 85;
y = 25;
},
{
smooth = 0;
x = 75;
y = 13;
},
{
segmentType = curve;
smooth = 1;
x = 57;
y = 13;
},
{
smooth = 0;
x = 48;
y = 13;
},
{
smooth = 0;
x = 38;
y = 16;
},
{
segmentType = curve;
smooth = 0;
x = 32;
y = 21;
},
{
segmentType = line;
smooth = 0;
x = 23;
y = 13;
},
{
smooth = 0;
x = 31;
y = 5;
},
{
smooth = 0;
x = 43;
y = -2;
},
{
segmentType = curve;
smooth = 1;
x = 59;
y = -2;
},
{
smooth = 0;
x = 87;
y = -2;
},
{
smooth = 0;
x = 102;
y = 19;
},
{
segmentType = curve;
smooth = 1;
x = 102;
y = 49;
},
{
smooth = 0;
x = 102;
y = 81;
},
{
smooth = 0;
x = 86;
y = 99;
},
{
segmentType = curve;
smooth = 1;
x = 62;
y = 99;
},
{
smooth = 0;
x = 46;
y = 99;
},
{
smooth = 0;
x = 34;
y = 91;
},
{
segmentType = curve;
smooth = 0;
x = 26;
y = 82;
},
{
segmentType = line;
smooth = 0;
x = 32;
y = 73;
},
{
smooth = 0;
x = 38;
y = 79;
},
{
smooth = 0;
x = 48;
y = 85;
},
{
segmentType = curve;
smooth = 1;
x = 58;
y = 85;
},
{
smooth = 0;
x = 75;
y = 85;
},
{
smooth = 0;
x = 85;
y = 73;
}
);
}
);
lib = {
};
name = b;
unicodes = (
);
width = 109;
};
};
};
},
{
glyphname = q;
layers = (
{
layerId = "D055DC6D-3381-4E90-8C7D-0AB98A8347A5";
paths = (
{
closed = 1;
nodes = (
"77 89 LINE",
"77 -43 LINE",
"93 -43 LINE",
"93 89 LINE"
);
},
{
closed = 1;
nodes = (
"29 99 OFFCURVE",
"11 79 OFFCURVE",
"11 46 CURVE SMOOTH",
"11 19 OFFCURVE",
"23 -2 OFFCURVE",
"50 -2 CURVE SMOOTH",
"63 -2 OFFCURVE",
"74 4 OFFCURVE",
"82 13 CURVE",
"77 24 LINE",
"71 17 OFFCURVE",
"62 12 OFFCURVE",
"51 12 CURVE SMOOTH",
"35 12 OFFCURVE",
"28 24 OFFCURVE",
"28 46 CURVE SMOOTH",
"28 72 OFFCURVE",
"38 85 OFFCURVE",
"58 85 CURVE SMOOTH",
"70 85 OFFCURVE",
"80 82 OFFCURVE",
"88 77 CURVE",
"93 89 LINE",
"83 95 OFFCURVE",
"71 99 OFFCURVE",
"58 99 CURVE SMOOTH"
);
}
);
width = 109;
}
);
unicode = 0071;
userData = {
com.typemytype.robofont.layerData = {
background = {
anchors = (
);
components = (
);
contours = (
{
points = (
{
segmentType = line;
smooth = 0;
x = 16;
y = 0;
},
{
segmentType = line;
smooth = 0;
x = 32;
y = 0;
},
{
segmentType = line;
smooth = 0;
x = 32;
y = 144;
},
{
segmentType = line;
smooth = 0;
x = 16;
y = 144;
}
);
},
{
points = (
{
segmentType = curve;
smooth = 1;
x = 56;
y = 11;
},
{
smooth = 0;
x = 39;
y = 11;
},
{
smooth = 0;
x = 27;
y = 23.65789;
},
{
segmentType = curve;
smooth = 1;
x = 27;
y = 48;
},
{
smooth = 0;
x = 27;
y = 72.34211;
},
{
smooth = 0;
x = 39;
y = 85;
},
{
segmentType = curve;
smooth = 1;
x = 56;
y = 85;
},
{
smooth = 0;
x = 73;
y = 85;
},
{
smooth = 0;
x = 85;
y = 72.34211;
},
{
segmentType = curve;
smooth = 1;
x = 85;
y = 48;
},
{
smooth = 0;
x = 85;
y = 23.65789;
},
{
smooth = 0;
x = 73;
y = 11;
}
);
},
{
points = (
{
segmentType = curve;
smooth = 1;
x = 56;
y = -3;
},
{
smooth = 0;
x = 83;
y = -3;
},
{
smooth = 0;
x = 102;
y = 18;
},
{
segmentType = curve;
smooth = 1;
x = 102;
y = 48;
},
{
smooth = 0;
x = 102;
y = 78;
},
{
smooth = 0;
x = 83;
y = 99;
},
{
segmentType = curve;
smooth = 1;
x = 56;
y = 99;
},
{
smooth = 0;
x = 29;
y = 99;
},
{
smooth = 0;
x = 10;
y = 78;
},
{
segmentType = curve;
smooth = 1;
x = 10;
y = 48;
},
{
smooth = 0;
x = 10;
y = 18;
},
{
smooth = 0;
x = 29;
y = -3;
}
);
}
);
lib = {
};
name = b;
unicodes = (
);
width = 109;
};
};
};
},
{
glyphname = r;
layers = (
{
layerId = "D055DC6D-3381-4E90-8C7D-0AB98A8347A5";
paths = (
{
closed = 1;
nodes = (
"32 0 LINE",
"32 96 LINE",
"16 96 LINE",
"16 0 LINE"
);
},
{
closed = 1;
nodes = (
"38 79 OFFCURVE",
"47 83 OFFCURVE",
"55 83 CURVE SMOOTH",
"60 83 OFFCURVE",
"63 82 OFFCURVE",
"66 81 CURVE",
"71 95 LINE",
"67 97 OFFCURVE",
"63 98 OFFCURVE",
"58 98 CURVE SMOOTH",
"46 98 OFFCURVE",
"34 91 OFFCURVE",
"26 78 CURVE",
"32 70 LINE"
);
}
);
width = 73;
}
);
unicode = 0072;
userData = {
com.typemytype.robofont.layerData = {
background = {
anchors = (
);
components = (
);
contours = (
{
points = (
{
segmentType = line;
smooth = 0;
x = 16;
y = 0;
},
{
segmentType = line;
smooth = 0;
x = 32;
y = 0;
},
{
segmentType = line;
smooth = 0;
x = 32;
y = 96;
},
{
segmentType = line;
smooth = 0;
x = 16;
y = 96;
}
);
},
{
points = (
{
segmentType = line;
smooth = 0;
x = 61;
y = 98;
},
{
smooth = 0;
x = 48;
y = 98;
},
{
smooth = 0;
x = 34;
y = 91;
},
{
segmentType = curve;
smooth = 0;
x = 26;
y = 81;
},
{
segmentType = line;
smooth = 0;
x = 32;
y = 73;
},
{
smooth = 0;
x = 38;
y = 79;
},
{
smooth = 0;
x = 47;
y = 84;
},
{
segmentType = curve;
smooth = 1;
x = 57;
y = 84;
},
{
segmentType = line;
smooth = 0;
x = 64;
y = 82;
},
{
segmentType = line;
smooth = 0;
x = 70;
y = 97;
}
);
}
);
lib = {
};
name = r;
unicodes = (
);
width = 73;
};
};
};
},
{
glyphname = s;
layers = (
{
layerId = "D055DC6D-3381-4E90-8C7D-0AB98A8347A5";
paths = (
{
closed = 1;
nodes = (
"56 14 OFFCURVE",
"47 10 OFFCURVE",
"40 10 CURVE SMOOTH",
"29 10 OFFCURVE",
"22 15 OFFCURVE",
"16 21 CURVE",
"7 12 LINE",
"15 3 OFFCURVE",
"26 -3 OFFCURVE",
"39 -3 CURVE SMOOTH",
"60 -3 OFFCURVE",
"73 10 OFFCURVE",
"73 26 CURVE SMOOTH",
"73 39 OFFCURVE",
"67 47 OFFCURVE",
"46 58 CURVE SMOOTH",
"34 64 OFFCURVE",
"30 66 OFFCURVE",
"30 74 CURVE SMOOTH",
"30 81 OFFCURVE",
"35 86 OFFCURVE",
"44 86 CURVE SMOOTH",
"52 86 OFFCURVE",
"58 82 OFFCURVE",
"64 77 CURVE",
"72 87 LINE",
"65 94 OFFCURVE",
"56 99 OFFCURVE",
"44 99 CURVE SMOOTH",
"25 99 OFFCURVE",
"13 88 OFFCURVE",
"13 72 CURVE SMOOTH",
"13 58 OFFCURVE",
"22 50 OFFCURVE",
"38 43 CURVE SMOOTH",
"54 36 OFFCURVE",
"56 30 OFFCURVE",
"56 24 CURVE SMOOTH"
);
}
);
width = 84;
}
);
unicode = 0073;
userData = {
com.typemytype.robofont.layerData = {
background = {
anchors = (
);
components = (
);
contours = (
{
points = (
{
segmentType = curve;
smooth = 1;
x = 59;
y = 26;
},
{
smooth = 0;
x = 59;
y = 15;
},
{
smooth = 0;
x = 49;
y = 11;
},
{
segmentType = curve;
smooth = 1;
x = 39;
y = 11;
},
{
smooth = 0;
x = 28;
y = 11;
},
{
smooth = 0;
x = 16;
y = 15;
},
{
segmentType = curve;
smooth = 0;
x = 9;
y = 19;
},
{
segmentType = line;
smooth = 0;
x = 4;
y = 7;
},
{
smooth = 0;
x = 12;
y = 2;
},
{
smooth = 0;
x = 24;
y = -3;
},
{
segmentType = curve;
smooth = 1;
x = 39;
y = -3;
},
{
smooth = 0;
x = 61;
y = -3;
},
{
smooth = 0;
x = 76;
y = 8;
},
{
segmentType = curve;
smooth = 1;
x = 76;
y = 27;
},
{
smooth = 0;
x = 76;
y = 48;
},
{
smooth = 0;
x = 59;
y = 54;
},
{
segmentType = curve;
smooth = 1;
x = 44;
y = 58;
},
{
smooth = 0;
x = 32;
y = 61;
},
{
smooth = 0;
x = 25;
y = 64;
},
{
segmentType = curve;
smooth = 1;
x = 25;
y = 72;
},
{
smooth = 0;
x = 25;
y = 79;
},
{
smooth = 0;
x = 33;
y = 85;
},
{
segmentType = curve;
smooth = 1;
x = 46;
y = 85;
},
{
smooth = 0;
x = 54;
y = 85;
},
{
smooth = 0;
x = 62;
y = 83;
},
{
segmentType = curve;
smooth = 0;
x = 69;
y = 79;
},
{
segmentType = line;
smooth = 0;
x = 74;
y = 91;
},
{
smooth = 0;
x = 67;
y = 96;
},
{
smooth = 0;
x = 57;
y = 99;
},
{
segmentType = curve;
smooth = 1;
x = 46;
y = 99;
},
{
smooth = 0;
x = 23;
y = 99;
},
{
smooth = 0;
x = 8;
y = 87;
},
{
segmentType = curve;
smooth = 1;
x = 8;
y = 70;
},
{
smooth = 0;
x = 8;
y = 54;
},
{
smooth = 0;
x = 22;
y = 48;
},
{
segmentType = curve;
smooth = 1;
x = 35;
y = 44;
},
{
smooth = 0;
x = 49;
y = 40;
},
{
smooth = 0;
x = 59;
y = 36;
}
);
}
);
lib = {
};
name = s;
unicodes = (
);
width = 84;
};
};
};
},
{
glyphname = t;
layers = (
{
layerId = "D055DC6D-3381-4E90-8C7D-0AB98A8347A5";
paths = (
{
closed = 1;
nodes = (
"57 13 OFFCURVE",
"52 12 OFFCURVE",
"48 12 CURVE SMOOTH",
"41 12 OFFCURVE",
"37 15 OFFCURVE",
"37 24 CURVE SMOOTH",
"37 121 LINE",
"21 121 LINE",
"21 23 LINE SMOOTH",
"21 6 OFFCURVE",
"30 -2 OFFCURVE",
"45 -2 CURVE SMOOTH",
"52 -2 OFFCURVE",
"59 0 OFFCURVE",
"66 3 CURVE",
"62 15 LINE"
);
},
{
closed = 1;
nodes = (
"64 83 LINE",
"64 96 LINE",
"6 96 LINE",
"6 83 LINE"
);
}
);
width = 73;
}
);
unicode = 0074;
userData = {
com.typemytype.robofont.layerData = {
background = {
anchors = (
);
components = (
);
contours = (
{
points = (
{
segmentType = line;
smooth = 0;
x = 81;
y = 23;
},
{
smooth = 0;
x = 75;
y = 17;
},
{
smooth = 0;
x = 65;
y = 12;
},
{
segmentType = curve;
smooth = 1;
x = 55;
y = 12;
},
{
smooth = 0;
x = 43;
y = 12;
},
{
smooth = 0;
x = 37;
y = 18;
},
{
segmentType = curve;
smooth = 1;
x = 37;
y = 31;
},
{
segmentType = line;
smooth = 0;
x = 37;
y = 116;
},
{
segmentType = line;
smooth = 0;
x = 21;
y = 116;
},
{
segmentType = line;
smooth = 1;
x = 21;
y = 31;
},
{
smooth = 0;
x = 21;
y = 11;
},
{
smooth = 0;
x = 29;
y = -2;
},
{
segmentType = curve;
smooth = 1;
x = 51;
y = -2;
},
{
smooth = 0;
x = 64;
y = -2;
},
{
smooth = 0;
x = 79;
y = 5;
},
{
segmentType = curve;
smooth = 0;
x = 87;
y = 15;
}
);
}
);
lib = {
};
name = n;
unicodes = (
);
width = 73;
};
};
};
},
{
glyphname = u;
layers = (
{
layerId = "D055DC6D-3381-4E90-8C7D-0AB98A8347A5";
paths = (
{
closed = 1;
nodes = (
"67 17 OFFCURVE",
"58 12 OFFCURVE",
"48 12 CURVE SMOOTH",
"37 12 OFFCURVE",
"32 18 OFFCURVE",
"32 31 CURVE SMOOTH",
"32 96 LINE",
"16 96 LINE",
"16 31 LINE SMOOTH",
"16 11 OFFCURVE",
"23 -2 OFFCURVE",
"44 -2 CURVE SMOOTH",
"57 -2 OFFCURVE",
"71 5 OFFCURVE",
"79 15 CURVE",
"73 23 LINE"
);
},
{
closed = 1;
nodes = (
"73 96 LINE",
"73 0 LINE",
"89 0 LINE",
"89 96 LINE"
);
}
);
width = 105;
}
);
unicode = 0075;
userData = {
com.typemytype.robofont.layerData = {
background = {
anchors = (
);
components = (
);
contours = (
);
lib = {
};
name = n;
unicodes = (
);
width = 105;
};
};
};
},
{
glyphname = v;
layers = (
{
layerId = "D055DC6D-3381-4E90-8C7D-0AB98A8347A5";
paths = (
{
closed = 1;
nodes = (
"6 96 LINE",
"42 0 LINE",
"48 0 LINE",
"50 16 LINE",
"42 43 LINE",
"23 96 LINE"
);
},
{
closed = 1;
nodes = (
"72 96 LINE",
"53 43 LINE",
"45 16 LINE",
"47 0 LINE",
"53 0 LINE",
"89 96 LINE"
);
}
);
width = 95;
}
);
unicode = 0076;
userData = {
com.typemytype.robofont.layerData = {
background = {
anchors = (
);
components = (
);
contours = (
);
lib = {
};
name = n;
unicodes = (
);
width = 95;
};
};
};
},
{
glyphname = w;
layers = (
{
layerId = "D055DC6D-3381-4E90-8C7D-0AB98A8347A5";
paths = (
{
closed = 1;
nodes = (
"76 96 LINE",
"71 74 LINE",
"99 0 LINE",
"106 0 LINE",
"110 14 LINE",
"79 96 LINE"
);
},
{
closed = 1;
nodes = (
"126 96 LINE",
"103 23 LINE",
"102 0 LINE",
"110 0 LINE",
"143 96 LINE"
);
},
{
closed = 1;
nodes = (
"6 96 LINE",
"38 0 LINE",
"42 0 LINE",
"47 22 LINE",
"23 96 LINE"
);
},
{
closed = 1;
nodes = (
"71 96 LINE",
"41 19 LINE",
"40 0 LINE",
"47 0 LINE",
"76 74 LINE",
"76 96 LINE"
);
}
);
width = 149;
}
);
unicode = 0077;
userData = {
com.typemytype.robofont.layerData = {
background = {
anchors = (
);
components = (
);
contours = (
);
lib = {
};
name = w;
unicodes = (
);
width = 149;
};
};
};
},
{
glyphname = x;
layers = (
{
layerId = "D055DC6D-3381-4E90-8C7D-0AB98A8347A5";
paths = (
{
closed = 1;
nodes = (
"90 0 LINE",
"26 96 LINE",
"8 96 LINE",
"72 0 LINE"
);
},
{
closed = 1;
nodes = (
"24 0 LINE",
"48 41 LINE",
"41 53 LINE",
"7 0 LINE"
);
},
{
closed = 1;
nodes = (
"88 96 LINE",
"71 96 LINE",
"49 59 LINE",
"56 47 LINE"
);
}
);
width = 97;
}
);
unicode = 0078;
userData = {
com.typemytype.robofont.layerData = {
background = {
anchors = (
);
components = (
);
contours = (
{
points = (
{
segmentType = line;
smooth = 0;
x = 72;
y = 0;
},
{
segmentType = line;
smooth = 0;
x = 89;
y = 0;
},
{
segmentType = line;
smooth = 0;
x = 26;
y = 96;
},
{
segmentType = line;
smooth = 0;
x = 9;
y = 96;
}
);
},
{
points = (
{
segmentType = line;
smooth = 0;
x = 7;
y = 0;
},
{
segmentType = line;
smooth = 0;
x = 23;
y = 0;
},
{
segmentType = line;
smooth = 0;
x = 50;
y = 41;
},
{
segmentType = line;
smooth = 0;
x = 42;
y = 53;
}
);
},
{
points = (
{
segmentType = line;
smooth = 0;
x = 54;
y = 47;
},
{
segmentType = line;
smooth = 0;
x = 87;
y = 96;
},
{
segmentType = line;
smooth = 0;
x = 71;
y = 96;
},
{
segmentType = line;
smooth = 0;
x = 46;
y = 59;
}
);
},
{
points = (
{
segmentType = line;
smooth = 0;
x = 50;
y = 41;
},
{
segmentType = line;
smooth = 0;
x = 54;
y = 47;
},
{
segmentType = line;
smooth = 0;
x = 46;
y = 59;
},
{
segmentType = line;
smooth = 0;
x = 42;
y = 53;
}
);
}
);
lib = {
};
name = x;
unicodes = (
);
width = 97;
};
};
};
},
{
glyphname = y;
layers = (
{
layerId = "D055DC6D-3381-4E90-8C7D-0AB98A8347A5";
paths = (
{
closed = 1;
nodes = (
"11 96 LINE",
"47 0 LINE",
"58 15 LINE",
"58 15 OFFCURVE",
"28 96 OFFCURVE",
"28 96 CURVE"
);
},
{
closed = 1;
nodes = (
"77 96 LINE",
"77 96 OFFCURVE",
"49 18 OFFCURVE",
"49 18 CURVE",
"45 11 LINE",
"35 -17 LINE SMOOTH",
"31 -28 OFFCURVE",
"27 -30 OFFCURVE",
"21 -30 CURVE SMOOTH",
"17 -30 OFFCURVE",
"13 -29 OFFCURVE",
"10 -28 CURVE",
"6 -40 LINE",
"10 -42 OFFCURVE",
"17 -44 OFFCURVE",
"22 -44 CURVE SMOOTH",
"36 -44 OFFCURVE",
"44 -38 OFFCURVE",
"51 -19 CURVE SMOOTH",
"94 96 LINE"
);
}
);
width = 100;
}
);
unicode = 0079;
userData = {
com.typemytype.robofont.layerData = {
background = {
anchors = (
);
components = (
);
contours = (
{
points = (
{
segmentType = line;
smooth = 0;
x = 94;
y = 96;
},
{
segmentType = line;
smooth = 0;
x = 77;
y = 96;
},
{
segmentType = line;
smooth = 0;
x = 58;
y = 43;
},
{
segmentType = line;
smooth = 0;
x = 50;
y = 16;
},
{
segmentType = line;
smooth = 0;
x = 52;
y = 0;
},
{
segmentType = line;
smooth = 0;
x = 58;
y = 0;
}
);
},
{
points = (
{
segmentType = line;
smooth = 0;
x = 28;
y = 96;
},
{
segmentType = line;
smooth = 0;
x = 11;
y = 96;
},
{
segmentType = line;
smooth = 0;
x = 47;
y = 0;
},
{
segmentType = line;
smooth = 0;
x = 53;
y = 0;
},
{
segmentType = line;
smooth = 0;
x = 55;
y = 16;
},
{
segmentType = line;
smooth = 0;
x = 47;
y = 43;
}
);
}
);
lib = {
};
name = y;
unicodes = (
);
width = 100;
};
};
};
},
{
glyphname = z;
layers = (
{
layerId = "D055DC6D-3381-4E90-8C7D-0AB98A8347A5";
paths = (
{
closed = 1;
nodes = (
"78 0 LINE",
"78 13 LINE",
"19 13 LINE",
"10 12 LINE",
"10 0 LINE"
);
},
{
closed = 1;
nodes = (
"67 83 LINE",
"76 84 LINE",
"76 96 LINE",
"11 96 LINE",
"11 83 LINE"
);
},
{
closed = 1;
nodes = (
"29 13 LINE",
"76 84 LINE",
"57 83 LINE",
"10 12 LINE"
);
}
);
width = 88;
}
);
unicode = 007A;
userData = {
com.typemytype.robofont.layerData = {
background = {
anchors = (
);
components = (
);
contours = (
);
lib = {
};
name = n;
unicodes = (
);
width = 88;
};
};
};
},
{
glyphname = period;
layers = (
{
layerId = "D055DC6D-3381-4E90-8C7D-0AB98A8347A5";
paths = (
{
closed = 1;
nodes = (
"32 -2 OFFCURVE",
"37 3 OFFCURVE",
"37 10 CURVE SMOOTH",
"37 17 OFFCURVE",
"32 22 OFFCURVE",
"25 22 CURVE SMOOTH",
"18 22 OFFCURVE",
"13 17 OFFCURVE",
"13 10 CURVE SMOOTH",
"13 3 OFFCURVE",
"18 -2 OFFCURVE",
"25 -2 CURVE SMOOTH"
);
}
);
width = 50;
}
);
unicode = 002E;
userData = {
com.typemytype.robofont.layerData = {
background = {
anchors = (
);
components = (
);
contours = (
);
lib = {
};
name = period;
unicodes = (
);
width = 50;
};
};
com.typemytype.robofont.mark = (
1,
0.5675,
0.4681,
1
);
};
},
{
glyphname = comma;
layers = (
{
layerId = "D055DC6D-3381-4E90-8C7D-0AB98A8347A5";
paths = (
{
closed = 1;
nodes = (
"39 -11 OFFCURVE",
"39 5 CURVE SMOOTH",
"39 15 OFFCURVE",
"34 22 OFFCURVE",
"25 22 CURVE SMOOTH",
"18 22 OFFCURVE",
"13 17 OFFCURVE",
"13 10 CURVE SMOOTH",
"13 3 OFFCURVE",
"18 -2 OFFCURVE",
"25 -2 CURVE",
"24 7 LINE",
"26 -9 OFFCURVE",
"19 -18 OFFCURVE",
"12 -25 CURVE",
"20 -32 LINE",
"30 -24 OFFCURVE"
);
}
);
width = 52;
}
);
unicode = 002C;
userData = {
com.typemytype.robofont.layerData = {
background = {
anchors = (
);
components = (
);
contours = (
{
points = (
{
segmentType = curve;
smooth = 1;
x = 25;
y = -2;
},
{
smooth = 0;
x = 32;
y = -2;
},
{
smooth = 0;
x = 37;
y = 3;
},
{
segmentType = curve;
smooth = 1;
x = 37;
y = 10;
},
{
smooth = 0;
x = 37;
y = 17;
},
{
smooth = 0;
x = 32;
y = 22;
},
{
segmentType = curve;
smooth = 1;
x = 25;
y = 22;
},
{
smooth = 0;
x = 18;
y = 22;
},
{
smooth = 0;
x = 13;
y = 17;
},
{
segmentType = curve;
smooth = 1;
x = 13;
y = 10;
},
{
smooth = 0;
x = 13;
y = 3;
},
{
smooth = 0;
x = 18;
y = -2;
}
);
}
);
lib = {
};
name = period;
unicodes = (
);
width = 52;
};
};
com.typemytype.robofont.mark = (
1,
0.5675,
0.4681,
1
);
};
},
{
glyphname = hyphen;
layers = (
{
layerId = "D055DC6D-3381-4E90-8C7D-0AB98A8347A5";
paths = (
{
closed = 1;
nodes = (
"53 42 LINE",
"53 57 LINE",
"6 57 LINE",
"6 42 LINE"
);
}
);
width = 59;
}
);
unicode = 002D;
userData = {
com.typemytype.robofont.layerData = {
background = {
anchors = (
);
components = (
);
contours = (
);
lib = {
};
name = hyphen;
unicodes = (
);
width = 59;
};
};
};
},
{
glyphname = dieresis;
layers = (
{
layerId = "D055DC6D-3381-4E90-8C7D-0AB98A8347A5";
paths = (
{
closed = 1;
nodes = (
"76 113 OFFCURVE",
"81 118 OFFCURVE",
"81 124 CURVE SMOOTH",
"81 130 OFFCURVE",
"76 135 OFFCURVE",
"70 135 CURVE SMOOTH",
"64 135 OFFCURVE",
"59 130 OFFCURVE",
"59 124 CURVE SMOOTH",
"59 118 OFFCURVE",
"64 113 OFFCURVE",
"70 113 CURVE SMOOTH"
);
},
{
closed = 1;
nodes = (
"36 113 OFFCURVE",
"41 118 OFFCURVE",
"41 124 CURVE SMOOTH",
"41 130 OFFCURVE",
"36 135 OFFCURVE",
"30 135 CURVE SMOOTH",
"24 135 OFFCURVE",
"19 130 OFFCURVE",
"19 124 CURVE SMOOTH",
"19 118 OFFCURVE",
"24 113 OFFCURVE",
"30 113 CURVE SMOOTH"
);
}
